<svg width="24" height="24" viewBox="0 0 24 24" fill="none" xmlns="http://www.w3.org/2000/svg">
<path d="M11 4C8.8 4 7 5.8 7 8C7 10.2 8.8 12 11 12C13.2 12 15 10.2 15 8C15 5.8 13.2 4 11 4ZM11 6C12.1 6 13 6.9 13 8C13 9.1 12.1 10 11 10C9.9 10 9 9.1 9 8C9 6.9 9.9 6 11 6ZM11 13C8.3 13 3 14.3 3 17V20H12.5C12.2 19.4 12.1 18.8 12 18.1H4.9V17C4.9 16.4 8 14.9 11 14.9C11.5 14.9 12 15 12.5 15C12.8 14.4 13.1 13.8 13.6 13.3C12.6 13.1 11.7 13 11 13Z" fill="white"/>
<g clip-path="url(#clip0_4212_326)">
<path d="M16.1426 16.5715H17.857V17.0001H16.1426V16.5715Z" fill="white"/>
<path d="M14 14.0005H20V15.2862H14V14.0005Z" fill="white"/>
<path d="M14.4287 19.9999H19.5714V15.7144H14.4287V19.9999ZM15.7144 16.5715C15.7144 16.3348 15.9063 16.1429 16.1429 16.1429H17.8572C18.0938 16.1429 18.2857 16.3348 18.2857 16.5715V17C18.2857 17.2367 18.0938 17.4286 17.8572 17.4286H16.1429C15.9063 17.4286 15.7144 17.2367 15.7144 17V16.5715Z" fill="white"/>
</g>
<defs>
<clipPath id="clip0_4212_326">
<rect width="6" height="6" fill="white" transform="translate(14 14)"/>
</clipPath>
</defs>
</svg>
