<svg width="24" height="24" viewBox="0 0 24 24" fill="none" xmlns="http://www.w3.org/2000/svg">
<path d="M11 4C8.8 4 7 5.8 7 8C7 10.2 8.8 12 11 12C13.2 12 15 10.2 15 8C15 5.8 13.2 4 11 4ZM11 6C12.1 6 13 6.9 13 8C13 9.1 12.1 10 11 10C9.9 10 9 9.1 9 8C9 6.9 9.9 6 11 6ZM11 13C8.3 13 3 14.3 3 17V20H12.5C12.2 19.4 12.1 18.8 12 18.1H4.9V17C4.9 16.4 8 14.9 11 14.9C11.5 14.9 12 15 12.5 15C12.8 14.4 13.1 13.8 13.6 13.3C12.6 13.1 11.7 13 11 13Z" fill="white"/>
<path fill-rule="evenodd" clip-rule="evenodd" d="M16.8505 16.1111L19.0957 14.5556L16.8505 13L16.8505 14.0001L13.9999 14.0001L13.9999 15.0001L16.8505 15.0001L16.8505 16.1111Z" fill="white"/>
<path fill-rule="evenodd" clip-rule="evenodd" d="M16.2452 16.8889L14 18.4444L16.2452 20V18.9999H19.0955V17.9999H16.2452V16.8889Z" fill="white"/>
</svg>
